<?xml version="1.0" encoding="UTF-8" standalone="no"?>
<!DOCTYPE svg PUBLIC "-//W3C//DTD SVG 1.1//EN" "http://www.w3.org/Graphics/SVG/1.1/DTD/svg11.dtd">
<!-- Created with Vectornator (http://vectornator.io/) -->
<svg height="100%" stroke-miterlimit="10" style="fill-rule:nonzero;clip-rule:evenodd;stroke-linecap:round;stroke-linejoin:round;" version="1.1" viewBox="0 0 2384.24 2384.24" width="100%" xml:space="preserve" xmlns="http://www.w3.org/2000/svg" xmlns:vectornator="http://vectornator.io" xmlns:xlink="http://www.w3.org/1999/xlink">
<defs/>
<clipPath id="ArtboardFrame">
<rect height="2384.24" width="2384.24" x="0" y="0"/>
</clipPath>
<g clip-path="url(#ArtboardFrame)" id="Layer-2" vectornator:layerName="Layer 2">
<path d="M1196.4 1943.57L1950.29 2341.39L2040.19 2384.24L344.049 2384.24L438.366 2333.42L1196.4 1943.57Z" fill="#ff0000" fill-rule="nonzero" opacity="1" stroke="#4a4642" stroke-linecap="butt" stroke-linejoin="round" stroke-width="0.1" vectornator:blendMode="overlay" vectornator:layerName="Polygon 3"/>
<g opacity="1" vectornator:blendMode="overlay" vectornator:layerName="Oval 1">
<path d="M543.384 1283.32C543.384 936.095 833.832 654.613 1192.12 654.613C1550.4 654.613 1840.85 936.095 1840.85 1283.32C1840.85 1630.55 1550.4 1912.03 1192.12 1912.03C833.832 1912.03 543.384 1630.55 543.384 1283.32Z" fill="#ff0000" fill-rule="nonzero" stroke="none"/>
<path d="M1200.09 654.625C1195.94 654.576 1191.78 654.629 1187.62 654.656C1193.31 654.619 1199 654.644 1204.69 654.75C1203.16 654.721 1201.63 654.643 1200.09 654.625ZM1204.69 654.75C1205.66 654.768 1206.62 654.79 1207.59 654.812C1206.62 654.79 1205.66 654.768 1204.69 654.75ZM1207.59 654.812C1213.39 654.945 1219.18 655.156 1224.97 655.438C1219.18 655.156 1213.39 654.946 1207.59 654.812ZM1224.97 655.438C1237.93 656.068 1250.88 657.061 1263.78 658.438C1250.88 657.06 1237.93 656.069 1224.97 655.438ZM1263.78 658.438C1270.23 659.126 1276.7 659.907 1283.12 660.781C1276.69 659.905 1270.24 659.127 1263.78 658.438ZM1283.12 660.781C1289.55 661.656 1295.94 662.627 1302.34 663.688C1295.95 662.627 1289.55 661.656 1283.12 660.781ZM1302.34 663.688C1315.14 665.809 1327.88 668.29 1340.53 671.156C1327.88 668.289 1315.14 665.81 1302.34 663.688ZM1340.53 671.156C1346.86 672.59 1353.19 674.131 1359.47 675.75C1367.29 677.767 1375.07 679.914 1382.81 682.219C1375.04 679.905 1367.22 677.711 1359.38 675.688C1353.12 674.074 1346.83 672.585 1340.53 671.156ZM1382.81 682.219C1390.56 684.523 1398.25 686.974 1405.91 689.562C1398.25 686.973 1390.56 684.525 1382.81 682.219ZM1405.91 689.562C1413.35 692.08 1420.74 694.748 1428.09 697.531C1420.74 694.747 1413.35 692.082 1405.91 689.562ZM1428.09 697.531C1429.78 698.171 1431.44 698.878 1433.12 699.531C1431.44 698.878 1429.78 698.17 1428.09 697.531ZM1433.12 699.531C1439.1 701.849 1445.07 704.196 1450.97 706.688C1445.06 704.194 1439.1 701.851 1433.12 699.531ZM1185.44 654.656C1180.13 654.708 1174.83 654.855 1169.53 655.031C1174.83 654.855 1180.14 654.708 1185.44 654.656ZM1169.53 655.031C1168.06 655.08 1166.59 655.098 1165.12 655.156C1166.59 655.098 1168.06 655.08 1169.53 655.031ZM1165.12 655.156C1159.42 655.383 1153.73 655.722 1148.03 656.094C1153.73 655.722 1159.42 655.384 1165.12 655.156ZM1146.72 656.156C1141.05 656.537 1135.38 657.007 1129.72 657.531C1135.39 657.006 1141.04 656.538 1146.72 656.156ZM1129.72 657.531C1128.57 657.638 1127.43 657.732 1126.28 657.844C1127.43 657.732 1128.57 657.637 1129.72 657.531ZM1126.28 657.844C1121.13 658.348 1115.98 658.94 1110.84 659.562C1115.98 658.939 1121.13 658.348 1126.28 657.844ZM1110.84 659.562C1109.52 659.723 1108.2 659.863 1106.88 660.031C1108.2 659.863 1109.52 659.723 1110.84 659.562ZM1106.88 660.031C1100.96 660.784 1095.05 661.621 1089.16 662.531C1095.05 661.62 1100.96 660.785 1106.88 660.031ZM1089.16 662.531C1082.89 663.499 1076.64 664.573 1070.41 665.719C1076.64 664.571 1082.89 663.5 1089.16 662.531ZM1069.5 665.875C1063.43 666.999 1057.38 668.207 1051.34 669.5C1057.37 668.206 1063.44 667 1069.5 665.875ZM1050.44 669.688C1047.07 670.413 1043.7 671.097 1040.34 671.875C1036.97 672.657 1033.64 673.571 1030.28 674.406C1036.98 672.737 1043.69 671.146 1050.44 669.688ZM1030.28 674.406C1028.63 674.817 1026.99 675.233 1025.34 675.656C1026.99 675.233 1028.63 674.816 1030.28 674.406ZM1025.34 675.656C1019.23 677.229 1013.13 678.876 1007.06 680.625C1013.13 678.877 1019.23 677.23 1025.34 675.656ZM1007.06 680.625C1005.18 681.167 1003.31 681.754 1001.44 682.312C1003.31 681.754 1005.18 681.167 1007.06 680.625ZM1001.44 682.312C995.348 684.126 989.285 686.011 983.25 688C989.282 686.012 995.35 684.126 1001.44 682.312ZM983.25 688C982.173 688.355 981.106 688.733 980.031 689.094C981.106 688.733 982.174 688.355 983.25 688ZM980.031 689.094C973.311 691.347 966.612 693.656 959.969 696.125C966.616 693.655 973.307 691.348 980.031 689.094ZM959.969 696.125C930.337 707.137 901.521 720.273 873.781 735.438C901.51 720.268 930.349 707.13 959.969 696.125ZM873.781 735.438C866.641 739.341 859.583 743.394 852.594 747.562C859.58 743.393 866.643 739.343 873.781 735.438ZM852.594 747.562C850.683 748.702 848.712 749.747 846.812 750.906C799.773 779.627 756.222 814.335 718.031 854.094C699.218 873.679 681.628 894.461 665.406 916.25C681.884 894.105 699.826 873.017 719 853.219C758.629 812.3 803.689 776.748 852.594 747.562ZM665.406 916.25C637.946 953.135 614.446 992.961 595.875 1035.06C592.257 1043.26 590.141 1048.33 588.438 1052.88C590.851 1046.92 593.374 1041.01 595.969 1035.12C614.519 993.071 637.944 953.158 665.406 916.25ZM1453.19 707.656C1459.73 710.445 1466.21 713.313 1472.66 716.312C1466.22 713.315 1459.72 710.444 1453.19 707.656ZM1472.66 716.312C1474.15 717.007 1475.61 717.764 1477.09 718.469C1475.61 717.764 1474.15 717.006 1472.66 716.312ZM1477.09 718.469C1482.8 721.176 1488.5 723.911 1494.12 726.781C1488.5 723.908 1482.8 721.178 1477.09 718.469ZM1494.12 726.781C1496.48 727.983 1498.79 729.27 1501.12 730.5C1498.78 729.269 1496.48 727.983 1494.12 726.781ZM1501.12 730.5C1505.58 732.845 1510.03 735.178 1514.44 737.625C1510.04 735.179 1505.58 732.844 1501.12 730.5ZM1514.44 737.625C1517.48 739.315 1520.49 741.073 1523.5 742.812C1520.49 741.074 1517.48 739.315 1514.44 737.625ZM1523.5 742.812C1527.47 745.104 1531.45 747.406 1535.38 749.781C1534.55 749.284 1533.76 748.743 1532.94 748.25C1529.82 746.384 1526.64 744.626 1523.5 742.812ZM1535.38 749.781C1538.87 751.896 1542.3 754.101 1545.75 756.281C1542.96 754.52 1540.22 752.687 1537.41 750.969C1536.74 750.56 1536.05 750.187 1535.38 749.781ZM1545.75 756.281C1549.62 758.723 1553.5 761.134 1557.31 763.656C1553.5 761.133 1549.62 758.723 1545.75 756.281ZM1557.31 763.656C1560.29 765.623 1563.18 767.703 1566.12 769.719C1563.18 767.703 1560.29 765.624 1557.31 763.656ZM1566.12 769.719C1570.5 772.715 1574.89 775.679 1579.19 778.781C1574.89 775.679 1570.5 772.715 1566.12 769.719ZM1579.19 778.781C1581.08 780.145 1582.91 781.585 1584.78 782.969C1582.91 781.585 1581.08 780.145 1579.19 778.781ZM1584.78 782.969C1589.92 786.76 1595.04 790.56 1600.06 794.5C1595.04 790.56 1589.91 786.76 1584.78 782.969ZM1603.81 797.531C1609.26 801.874 1614.66 806.266 1619.97 810.781C1614.67 806.267 1609.26 801.872 1603.81 797.531ZM1626.41 816.438C1630.49 820.011 1634.6 823.574 1638.59 827.25C1634.6 823.574 1630.5 820.012 1626.41 816.438ZM1638.59 827.25C1641.75 830.155 1644.81 833.158 1647.91 836.125C1644.81 833.16 1641.75 830.153 1638.59 827.25ZM1647.91 836.125C1651.24 839.319 1654.64 842.454 1657.91 845.719C1654.64 842.452 1651.25 839.321 1647.91 836.125ZM1658.53 846.375C1664.36 852.215 1670.09 858.157 1675.69 864.219C1670.09 858.162 1664.36 852.211 1658.53 846.375ZM1692.75 883.438C1736.33 934.631 1771.68 992.772 1796.78 1055.16C1825.89 1127.52 1840.81 1205.3 1840.81 1283.28C1840.81 1361.27 1825.89 1439.08 1796.78 1511.44C1771.67 1573.85 1736.3 1632.01 1692.69 1683.22C1664.3 1716.56 1632.46 1746.92 1597.91 1773.81C1632.46 1746.92 1664.35 1716.63 1692.75 1683.28C1736.36 1632.07 1771.73 1573.91 1796.84 1511.5C1825.96 1439.14 1840.91 1361.33 1840.91 1283.34C1840.91 1205.36 1825.96 1127.55 1796.84 1055.19C1771.73 992.77 1736.36 934.652 1692.75 883.438ZM1597.91 1773.81C1591 1779.19 1583.97 1784.44 1576.84 1789.53C1583.97 1784.43 1590.99 1779.2 1597.91 1773.81ZM1576.84 1789.53C1562.6 1799.72 1547.93 1809.34 1532.91 1818.34C1534.4 1817.45 1535.92 1816.62 1537.41 1815.72C1550.88 1807.49 1564.01 1798.71 1576.84 1789.53ZM1532.91 1818.34C1519.41 1826.43 1505.63 1834.03 1491.59 1841.12C1505.64 1834.03 1519.41 1826.43 1532.91 1818.34ZM1491.59 1841.12C1449.48 1862.4 1405.07 1879.13 1359.38 1890.91C1307.38 1904.31 1253.78 1911.33 1200.09 1911.97C1253.81 1911.33 1307.46 1904.38 1359.47 1890.97C1405.15 1879.19 1449.49 1862.39 1491.59 1841.12ZM1200.09 1911.97C1193.38 1912.05 1186.68 1912.03 1179.97 1911.91C1186.67 1912.03 1193.39 1912.05 1200.09 1911.97ZM1179.97 1911.91C1173.32 1911.79 1166.67 1911.56 1160.03 1911.25C1166.67 1911.56 1173.32 1911.79 1179.97 1911.91ZM588.375 1053.03C571.511 1094.68 559.13 1138.05 551.75 1182.41C546.217 1215.66 551.68 1182.98 543.5 1282.53C586.569 1078.91 580.405 1074.4 588.375 1053.03ZM543.5 1282.53C543.439 1282.82 543.405 1282.99 543.344 1283.28C551.66 1384.22 546.103 1350.84 551.656 1384.22C559.195 1429.53 572.017 1473.82 589.438 1516.28C579.746 1492.08 588.521 1496.38 543.438 1283.34C543.469 1282.96 543.469 1282.91 543.5 1282.53ZM589.438 1516.28C590.393 1518.67 591.802 1522.01 593.188 1525.19C591.918 1522.22 590.661 1519.26 589.438 1516.28ZM593.188 1525.19C594.092 1527.3 594.947 1529.43 595.875 1531.53C625.295 1598.23 667.097 1659.51 717.625 1712C667.189 1659.38 625.413 1598.34 595.969 1531.59C594.781 1528.9 594.125 1527.34 593.188 1525.19ZM718.156 1712.59C718.422 1712.87 718.671 1713.16 718.938 1713.44C720.307 1714.85 721.742 1716.19 723.125 1717.59C721.477 1715.92 719.785 1714.29 718.156 1712.59ZM723.125 1717.59C727.107 1721.64 731.127 1725.65 735.219 1729.59C731.121 1725.65 727.117 1721.64 723.125 1717.59ZM735.219 1729.59C736.5 1730.82 737.803 1732.03 739.094 1733.25C737.805 1732.03 736.497 1730.82 735.219 1729.59ZM739.094 1733.25C743.245 1737.18 747.431 1741.09 751.688 1744.91C747.428 1741.09 743.251 1737.18 739.094 1733.25ZM751.688 1744.91C753.64 1746.66 755.621 1748.37 757.594 1750.09C755.621 1748.37 753.638 1746.66 751.688 1744.91ZM757.594 1750.09C761.553 1753.56 765.55 1756.98 769.594 1760.34C765.549 1756.98 761.555 1753.56 757.594 1750.09ZM769.594 1760.34C771.363 1761.82 773.122 1763.3 774.906 1764.75C773.122 1763.3 771.362 1761.81 769.594 1760.34ZM774.906 1764.75C779.792 1768.73 784.75 1772.6 789.75 1776.44C784.753 1772.6 779.79 1768.73 774.906 1764.75ZM789.75 1776.44C790.734 1777.19 791.7 1777.97 792.688 1778.72C791.699 1777.97 790.734 1777.19 789.75 1776.44ZM792.688 1778.72C798.333 1782.99 804.032 1787.19 809.812 1791.28C804.041 1787.19 798.322 1782.99 792.688 1778.72ZM812.25 1793.03C818.21 1797.21 824.25 1801.28 830.344 1805.25C824.245 1801.27 818.212 1797.21 812.25 1793.03ZM830.344 1805.25C833.387 1807.24 836.486 1809.13 839.562 1811.06C836.486 1809.13 833.388 1807.24 830.344 1805.25ZM839.562 1811.06C841.993 1812.59 844.394 1814.16 846.844 1815.66C847.366 1815.97 847.915 1816.25 848.438 1816.56C845.462 1814.76 842.509 1812.92 839.562 1811.06ZM848.438 1816.56C854.285 1820.11 860.199 1823.57 866.156 1826.94C860.193 1823.57 854.292 1820.11 848.438 1816.56ZM866.156 1826.94C867.607 1827.76 869.043 1828.6 870.5 1829.41C869.045 1828.6 867.605 1827.76 866.156 1826.94ZM870.5 1829.41C871.601 1830.02 872.677 1830.68 873.781 1831.28C878.836 1834.05 883.967 1836.65 889.094 1839.28C882.852 1836.08 876.636 1832.81 870.5 1829.41ZM889.094 1839.28C890.536 1840.02 891.958 1840.8 893.406 1841.53C891.957 1840.8 890.537 1840.02 889.094 1839.28ZM893.406 1841.53C900.984 1845.35 908.624 1849.01 916.344 1852.53C908.626 1849.02 900.982 1845.34 893.406 1841.53ZM916.344 1852.53C924.308 1856.16 932.335 1859.63 940.438 1862.94C932.34 1859.63 924.303 1856.16 916.344 1852.53ZM940.438 1862.94C947.914 1865.99 955.447 1868.88 963.031 1871.66C955.446 1868.88 947.915 1865.99 940.438 1862.94ZM963.031 1871.66C965.365 1872.51 967.719 1873.3 970.062 1874.12C967.722 1873.3 965.362 1872.51 963.031 1871.66ZM970.062 1874.12C975.86 1876.17 981.679 1878.18 987.531 1880.06C981.676 1878.18 975.862 1876.17 970.062 1874.12ZM987.531 1880.06C989.671 1880.75 991.822 1881.4 993.969 1882.06C991.822 1881.4 989.671 1880.75 987.531 1880.06ZM993.969 1882.06C1000.07 1883.96 1006.19 1885.78 1012.34 1887.5C1006.19 1885.78 1000.07 1883.96 993.969 1882.06ZM1012.34 1887.5C1014.21 1888.02 1016.07 1888.53 1017.94 1889.03C1016.07 1888.53 1014.2 1888.02 1012.34 1887.5ZM1017.94 1889.03C1024.33 1890.76 1030.75 1892.37 1037.19 1893.91C1030.75 1892.38 1024.33 1890.75 1017.94 1889.03ZM1037.19 1893.91C1038.24 1894.16 1039.29 1894.47 1040.34 1894.72C1041.46 1894.98 1042.6 1895.18 1043.72 1895.44C1041.54 1894.94 1039.36 1894.42 1037.19 1893.91ZM1043.72 1895.44C1046.11 1895.98 1048.48 1896.61 1050.88 1897.12C1053.59 1897.71 1056.34 1898.2 1059.06 1898.75C1053.94 1897.72 1048.82 1896.59 1043.72 1895.44ZM1061.06 1899.16C1066.86 1900.31 1072.68 1901.38 1078.5 1902.38C1072.67 1901.38 1066.86 1900.31 1061.06 1899.16ZM1078.5 1902.38C1079.33 1902.52 1080.17 1902.67 1081 1902.81C1080.17 1902.67 1079.33 1902.52 1078.5 1902.38ZM1081 1902.81C1087.22 1903.85 1093.47 1904.79 1099.72 1905.66C1093.47 1904.79 1087.22 1903.85 1081 1902.81ZM1099.72 1905.66C1106.02 1906.53 1112.33 1907.31 1118.66 1908C1112.33 1907.31 1106.02 1906.53 1099.72 1905.66ZM1120.47 1908.19C1126.89 1908.87 1133.31 1909.47 1139.75 1909.97C1133.32 1909.47 1126.88 1908.87 1120.47 1908.19ZM1139.75 1909.97C1146.35 1910.48 1152.95 1910.9 1159.56 1911.22C1152.95 1910.9 1146.35 1910.48 1139.75 1909.97Z" fill="#4a4642" stroke="none"/>
</g>
<path d="M1074.21 1695.59L1310.03 1695.59L1310.03 2128.46L1074.21 2128.46L1074.21 1695.59Z" fill="#ff0000" fill-rule="nonzero" opacity="1" stroke="#4a4642" stroke-linecap="butt" stroke-linejoin="round" stroke-width="0.1" vectornator:blendMode="overlay" vectornator:layerName="Rectangle 1"/>
</g>
</svg>
